<svg width="29" height="28" viewBox="0 0 29 28" fill="none" xmlns="http://www.w3.org/2000/svg">
<path d="M4.21354 23.4969C6.77132 26.2659 10.4332 28 14.5 28C22.232 28 28.5 21.732 28.5 14C28.5 12.5508 28.2798 11.153 27.871 9.83823L21.9994 13.2282C22.0252 13.4819 22.0385 13.7394 22.0385 14C22.0385 18.1634 18.6634 21.5385 14.5 21.5385C12.8498 21.5385 11.3234 21.0082 10.0819 20.1088L4.21354 23.4969Z" fill="white"/>
<path d="M18.6461 7.7031C17.4566 6.91832 16.0317 6.46154 14.5 6.46154C10.3366 6.46154 6.96154 9.83662 6.96154 14C6.96154 14.1483 6.96582 14.2956 6.97427 14.4418L1.04101 17.8674C0.688701 16.6391 0.5 15.3416 0.5 14C0.5 6.26801 6.76801 0 14.5 0C18.4564 0 22.0294 1.64111 24.5755 4.27973L18.6461 7.7031Z" fill="white"/>
</svg>
